# Tiled2Unity generated file. Do not modify by hand.
# Wavefront file for 'Level_02_mesh_0002.obj'

# Vertices (Count = 100)
v -3.04 -7.52 0
v -3.2 -7.52 0
v -3.2 -7.36 0
v -3.04 -7.36 0
v -4.8 -7.52 0
v -4.96 -7.52 0
v -4.96 -7.36 0
v -4.8 -7.36 0
v -5.28 -7.52 0
v -5.44 -7.52 0
v -5.44 -7.36 0
v -5.28 -7.36 0
v -6.56 -7.84 0
v -6.72 -7.84 0
v -6.72 -7.68 0
v -6.56 -7.68 0
v -8.16 -7.84 0
v -8.32 -7.84 0
v -8.32 -7.68 0
v -8.16 -7.68 0
v -6.88 -8.96 0
v -7.04 -8.96 0
v -7.04 -8.8 0
v -6.88 -8.8 0
v -4.96 -9.28 0
v -5.12 -9.28 0
v -5.12 -9.12 0
v -4.96 -9.12 0
v -5.44 -9.28 0
v -5.6 -9.28 0
v -5.6 -9.12 0
v -5.44 -9.12 0
v -4.96 -9.76 0
v -5.12 -9.76 0
v -5.12 -9.599999 0
v -4.96 -9.599999 0
v -5.44 -9.76 0
v -5.6 -9.76 0
v -5.6 -9.599999 0
v -5.44 -9.599999 0
v -3.2 -10.08 0
v -3.36 -10.08 0
v -3.36 -9.92 0
v -3.2 -9.92 0
v -6.56 -10.88 0
v -6.72 -10.88 0
v -6.72 -10.72 0
v -6.56 -10.72 0
v -7.2 -10.88 0
v -7.36 -10.88 0
v -7.36 -10.72 0
v -7.2 -10.72 0
v -6.88 -11.04 0
v -7.04 -11.04 0
v -7.04 -10.88 0
v -6.88 -10.88 0
v -6.24 -11.2 0
v -6.4 -11.2 0
v -6.4 -11.04 0
v -6.24 -11.04 0
v -6.72 -11.2 0
v -6.88 -11.2 0
v -6.88 -11.04 0
v -6.72 -11.04 0
v -6.88 -11.2 0
v -7.04 -11.2 0
v -7.04 -11.04 0
v -6.88 -11.04 0
v -6.56 -11.36 0
v -6.72 -11.36 0
v -6.72 -11.2 0
v -6.56 -11.2 0
v -6.72 -11.36 0
v -6.88 -11.36 0
v -6.88 -11.2 0
v -6.72 -11.2 0
v -6.88 -11.36 0
v -7.04 -11.36 0
v -7.04 -11.2 0
v -6.88 -11.2 0
v -5.92 -11.52 0
v -6.08 -11.52 0
v -6.08 -11.36 0
v -5.92 -11.36 0
v -6.4 -11.52 0
v -6.56 -11.52 0
v -6.56 -11.36 0
v -6.4 -11.36 0
v -6.56 -11.52 0
v -6.72 -11.52 0
v -6.72 -11.36 0
v -6.56 -11.36 0
v -6.72 -11.52 0
v -6.88 -11.52 0
v -6.88 -11.36 0
v -6.72 -11.36 0
v -6.88 -11.52 0
v -7.04 -11.52 0
v -7.04 -11.36 0
v -6.88 -11.36 0

# Texture cooridinates (Count = 24)
vt 0.04 0.6521739
vt 0.08 0.6521739
vt 0.08 0.6956522
vt 0.04 0.6956522
vt 0.12 0.6521739
vt 0.16 0.6521739
vt 0.16 0.6956522
vt 0.12 0.6956522
vt 0.36 0.6521739
vt 0.4 0.6521739
vt 0.4 0.6956522
vt 0.36 0.6956522
vt 0.68 0.08695652
vt 0.72 0.08695652
vt 0.72 0.1304348
vt 0.68 0.1304348
vt 0.48 0.6521739
vt 0.48 0.6956522
vt 0.44 0.6956522
vt 0.44 0.6521739
vt 0.76 0.173913
vt 0.8 0.173913
vt 0.8 0.2173913
vt 0.76 0.2173913

# Normal
vn 0 0 -1

# Mesh description
g Level_02_mesh_0002

# Faces
f 1/1/1 2/2/1 3/3/1 4/4/1
f 5/5/1 6/6/1 7/7/1 8/8/1
f 9/5/1 10/6/1 11/7/1 12/8/1
f 13/1/1 14/2/1 15/3/1 16/4/1
f 17/5/1 18/6/1 19/7/1 20/8/1
f 21/9/1 22/10/1 23/11/1 24/12/1
f 25/13/1 26/14/1 27/15/1 28/16/1
f 29/13/1 30/14/1 31/15/1 32/16/1
f 33/13/1 34/14/1 35/15/1 36/16/1
f 37/13/1 38/14/1 39/15/1 40/16/1
f 41/17/1 42/18/1 43/19/1 44/20/1
f 45/21/1 46/22/1 47/23/1 48/24/1
f 49/9/1 50/10/1 51/11/1 52/12/1
f 53/21/1 54/22/1 55/23/1 56/24/1
f 57/21/1 58/22/1 59/23/1 60/24/1
f 61/21/1 62/22/1 63/23/1 64/24/1
f 65/21/1 66/22/1 67/23/1 68/24/1
f 69/21/1 70/22/1 71/23/1 72/24/1
f 73/21/1 74/22/1 75/23/1 76/24/1
f 77/21/1 78/22/1 79/23/1 80/24/1
f 81/21/1 82/22/1 83/23/1 84/24/1
f 85/21/1 86/22/1 87/23/1 88/24/1
f 89/21/1 90/22/1 91/23/1 92/24/1
f 93/21/1 94/22/1 95/23/1 96/24/1
f 97/21/1 98/22/1 99/23/1 100/24/1

