# Tiled2Unity generated file. Do not modify by hand.
# Wavefront file for 'Level_01_mesh_0004.obj'

# Vertices (Count = 64)
v -688 -272 0
v -704 -272 0
v -704 -256 0
v -688 -256 0
v -688 -288 0
v -704 -288 0
v -704 -272 0
v -688 -272 0
v -688 -304 0
v -704 -304 0
v -704 -288 0
v -688 -288 0
v -688 -320 0
v -704 -320 0
v -704 -304 0
v -688 -304 0
v -688 -336 0
v -704 -336 0
v -704 -320 0
v -688 -320 0
v -688 -352 0
v -704 -352 0
v -704 -336 0
v -688 -336 0
v -688 -368 0
v -704 -368 0
v -704 -352 0
v -688 -352 0
v -688 -384 0
v -704 -384 0
v -704 -368 0
v -688 -368 0
v -688 -400 0
v -704 -400 0
v -704 -384 0
v -688 -384 0
v -1232 -672 0
v -1248 -672 0
v -1248 -656 0
v -1232 -656 0
v -1232 -688 0
v -1248 -688 0
v -1248 -672 0
v -1232 -672 0
v -1232 -704 0
v -1248 -704 0
v -1248 -688 0
v -1232 -688 0
v -1232 -720 0
v -1248 -720 0
v -1248 -704 0
v -1232 -704 0
v -1232 -736 0
v -1248 -736 0
v -1248 -720 0
v -1232 -720 0
v -1232 -752 0
v -1248 -752 0
v -1248 -736 0
v -1232 -736 0
v -1232 -768 0
v -1248 -768 0
v -1248 -752 0
v -1232 -752 0

# Texture cooridinates (Count = 4)
vt 0.28 0.5217391
vt 0.32 0.5217391
vt 0.32 0.5652174
vt 0.28 0.5652174

# Normal
vn 0 0 -1

# Mesh description
g Level_01_mesh_0004

# Faces
f 1/1/1 2/2/1 3/3/1 4/4/1
f 5/1/1 6/2/1 7/3/1 8/4/1
f 9/1/1 10/2/1 11/3/1 12/4/1
f 13/1/1 14/2/1 15/3/1 16/4/1
f 17/1/1 18/2/1 19/3/1 20/4/1
f 21/1/1 22/2/1 23/3/1 24/4/1
f 25/1/1 26/2/1 27/3/1 28/4/1
f 29/1/1 30/2/1 31/3/1 32/4/1
f 33/1/1 34/2/1 35/3/1 36/4/1
f 37/1/1 38/2/1 39/3/1 40/4/1
f 41/1/1 42/2/1 43/3/1 44/4/1
f 45/1/1 46/2/1 47/3/1 48/4/1
f 49/1/1 50/2/1 51/3/1 52/4/1
f 53/1/1 54/2/1 55/3/1 56/4/1
f 57/1/1 58/2/1 59/3/1 60/4/1
f 61/1/1 62/2/1 63/3/1 64/4/1

